<?xml version="1.0" encoding="UTF-8" standalone="no"?>
<svg
	xmlns="http://www.w3.org/2000/svg"
	xmlns:svg="http://www.w3.org/2000/svg"
	xmlns:xlink="http://www.w3.org/1999/xlink"
	xmlns:rdf="http://www.w3.org/1999/02/22-rdf-syntax-ns#"
	xmlns:dc="http://purl.org/dc/elements/1.1/"
	xmlns:cc="http://creativecommons.org/ns#"
	version="2.0"
	viewBox="0 0 240 400"
	width="120mm" height="200mm"
	id="cyrillic-variant">
<title xml:lang="en">Cyrillic variant lowercase forms (б, д, г, п, т, ш)</title>
<desc xml:lang="en">Variants of lowercase letters in the Cyrillic script: Б/б, Г/г, Ѓ/ѓ, Д/д, И/и, П/п, Т/т, Ш/ш. 
Five to six columns show different forms: 
1.1. default slab-serif upright (Russian/Eastern), 
1.2. alternate slab-serif upright (Bulgarian/Western), 
2. sans-serif oblique (i.e. slanted), 
3.1. standard italic (Russian/Eastern), 
3.2. alternate italic (Serbian/Southern) and 
3.3. (rare) disambiguated italic.
In traditional Bulgarian typesetting, the upright shapes of characters д (d), г (g), и (i), п (p) and т (t) resemble their cursive forms, 
i.e. they look similar to Roman lowercase letters g, ƨ (mirrored s), u, n and m, respectively, instead of like small capital letters.
In South-European Slavic writing systems, Serbian and Macedonian in particular, alternative italic shapes are preferred for some letters.
</desc>
<metadata>
	<rdf:RDF>
		<cc:Work>
			<dc:title>Cyrillic alternate forms</dc:title>
			<dc:format>image/svg+xml</dc:format>
			<dc:type rdf:resource="http://purl.org/dc/dcmitype/StillImage" />
			<cc:license rdf:resource="http://creativecommons.org/licenses/by-sa/4.0/" />
		</cc:Work>
		<cc:License rdf:about="http://creativecommons.org/licenses/by-sa/4.0/">
			<cc:permits rdf:resource="http://creativecommons.org/ns#Reproduction" />
			<cc:permits rdf:resource="http://creativecommons.org/ns#Distribution" />
			<cc:requires rdf:resource="http://creativecommons.org/ns#Notice" />
			<cc:requires rdf:resource="http://creativecommons.org/ns#Attribution" />
			<cc:permits rdf:resource="http://creativecommons.org/ns#DerivativeWorks" />
			<cc:requires rdf:resource="http://creativecommons.org/ns#ShareAlike" />
		</cc:License>
	</rdf:RDF>
</metadata>
<defs>
<g overflow="visible" width="40" height="40">
	<g id="upright-letters">
		<symbol id="be-upright" overflow="visible">
			<path stroke="none" d="m 1.578125,-8.3125 -0.140625,-2.75 c -0.054688,-1.113281 -0.078125,-1.914062 -0.078125,-2.40625 0,-0.488281 0.0625,-1.171875 0.1875,-2.046875 0.125,-0.875 0.363281,-1.671875 0.71875,-2.390625 0.925781,-1.863281 2.269531,-3.21875 4.03125,-4.0625 0.976563,-0.46875 2.1875,-0.773438 3.625,-0.921875 1.4375,-0.144531 2.367187,-0.289063 2.796875,-0.4375 0.4375,-0.144531 0.890625,-0.390625 1.359375,-0.734375 0.46875,-0.34375 0.738281,-0.601562 0.8125,-0.78125 h 1.65625 c -0.15625,0.992188 -0.640625,1.980469 -1.453125,2.96875 -0.804688,0.992188 -1.578125,1.542969 -2.328125,1.65625 -3.53125,0.542969 -5.632813,0.945312 -6.296875,1.203125 -0.667969,0.261719 -1.523438,0.953125 -2.5625,2.078125 -0.6875,0.742188 -1.027344,2.085938 -1.015625,4.03125 0.5625,-1.101562 1.316406,-2.078125 2.265625,-2.921875 0.9375,-0.820313 2.421875,-1.234375 4.453125,-1.234375 2.425781,0 4.367187,0.796875 5.828125,2.390625 1.46875,1.59375 2.203125,3.714844 2.203125,6.359375 0,2.648438 -0.734375,4.773438 -2.203125,6.375 -1.460938,1.59375 -3.398438,2.390625 -5.8125,2.390625 -2.429688,0 -4.339844,-0.757813 -5.734375,-2.28125 C 2.492188,-3.347656 1.722656,-5.507812 1.578125,-8.3125 Z 
				m 8.03125,-7.203125 c -3.117187,0 -4.671875,2.402344 -4.671875,7.203125 0,2.375 0.394531,4.171875 1.1875,5.390625 0.789062,1.21875 1.953125,1.828125 3.484375,1.828125 3.113281,0 4.671875,-2.40625 4.671875,-7.21875 0,-4.800781 -1.558594,-7.203125 -4.671875,-7.203125 z"/>
		</symbol>
		<symbol id="ge-upright" overflow="visible">
			<path stroke="none" d="m 15.375,-16.609375 v 4.515625 H 13.71875 V -14.6875 H 6.5625 V -1.65625 H 8.796875 V 0 H 1.09375 V -1.65625 H 3.6875 V -14.953125 H 0.921875 v -1.65625 z"/>
		</symbol>
		<symbol id="de-upright" overflow="visible">
			<path stroke="none" d="M 6.953125,-14.71875 V -12 c 0,2.460938 -0.140625,4.464844 -0.421875,6.015625 C 6.25,-4.429688 5.984375,-3.148438 5.734375,-2.140625 5.710938,-2.054688 5.726562,-2 5.78125,-1.96875 5.832031,-1.9375 5.988281,-1.921875 6.25,-1.921875 h 6.6875 V -14.71875 Z 
				M 5.03125,-14.953125 H 2.4375 v -1.65625 h 15.953125 v 1.65625 H 15.8125 V -1.65625 h 2.578125 v 6.078125 h -1.625 l -0.25,-2.203125 C 16.347656,0.738281 15.742188,0 14.703125,0 H 4.84375 C 3.800781,0 3.195312,0.738281 3.03125,2.21875 l -0.25,2.203125 h -1.625 V -1.65625 h 0.875 c 0.769531,0 1.398438,-0.625 1.890625,-1.875 0.488281,-1.25 0.796875,-2.53125 0.921875,-3.84375 0.125,-1.320312 0.1875,-2.867188 0.1875,-4.640625 z"/>
		</symbol>
		<symbol id="gje-upright" overflow="visible">
			<path stroke="none" d="m 11.171875,-25.59375 h 3.109375 l -5.3125,5.875 H 7.140625 Z 
				m 4.203125,8.984375 v 4.515625 H 13.71875 V -14.6875 H 6.5625 V -1.65625 H 8.796875 V 0 H 1.09375 V -1.65625 H 3.6875 V -14.953125 H 0.921875 v -1.65625 z"/>
		</symbol>
		<symbol id="pe-upright" overflow="visible">
			<path stroke="none" d="m 19.640625,-16.609375 v 1.65625 h -2.59375 V -1.65625 h 2.59375 V 0 h -8.0625 v -1.65625 h 2.59375 V -14.6875 H 6.5625 V -1.65625 H 9.15625 V 0 H 1.09375 V -1.65625 H 3.6875 V -14.953125 H 1.09375 v -1.65625 z"/>
		</symbol>
		<symbol id="te-upright" overflow="visible">
			<path stroke="none" d="m 16.484375,-16.609375 v 4.515625 H 14.84375 v -2.59375 h -4.515625 v 13.03125 h 2.59375 V 0 h -8.0625 v -1.65625 h 2.59375 V -14.6875 H 2.9375 v 2.59375 H 1.296875 v -4.515625 z"/>
		</symbol>
		<symbol id="sha-upright" overflow="visible">
			<path stroke="none" d="m 16.453125,-1.921875 h 6.953125 v -13.03125 H 20.8125 v -1.65625 h 8.0625 v 1.65625 H 26.28125 V -1.65625 H 28.875 V 0 H 1.15625 V -1.65625 H 3.75 V -14.953125 H 1.15625 v -1.65625 h 8.0625 v 1.65625 H 6.625 v 13.03125 h 6.953125 v -13.03125 h -2.59375 v -1.65625 h 8.0625 v 1.65625 h -2.59375 z"/>
		</symbol>
		<symbol id="i-upright" overflow="visible">
			<path stroke="none" d="
			m              19.640625,
			  -16.609375 
			V -14.953125 H 17.046875 
			V  -1.65625  H 19.640625 
			V   0        H 11.578125 
			V  -1.65625  H 14.171875 
			V -14.953125  
			             H 11.578125 
		    V -16.609375 z
			M               9.15625,
			  -16.609375
			V -14.953125 H  6.5625 
			V  -1.65625  H  9.15625 
			V   0        H  1.09375 
			V  -1.65625  H  3.6875 
			V -14.953125 H  1.09375 
			V -16.609375 z
			M 6.5625,-1.65625
			L 14.175,-11.5
			v -3.3125
			L 6.5625,-4.96875
			z"/>
		</symbol>
		<symbol id="be-upright-alt" overflow="visible">
			<use xlink:href="#be-italic-alt" transform="skewX(11)"/>
		</symbol>
		<symbol id="ge-upright-alt" overflow="visible">
			<use xlink:href="#ge-italic" transform="skewX(11)"/>
		</symbol>
		<symbol id="de-upright-alt" overflow="visible">
			<use xlink:href="#de-italic-alt" transform="skewX(11)"/>
		</symbol>
		<symbol id="gje-upright-alt" overflow="visible">
			<use xlink:href="#gje-italic" transform="skewX(11)"/>
		</symbol>
		<symbol id="pe-upright-alt" overflow="visible">
			<use xlink:href="#pe-italic" transform="skewX(11)"/>
		</symbol>
		<symbol id="te-upright-alt" overflow="visible">
			<use xlink:href="#te-italic" transform="skewX(11)"/>
		</symbol>
		<symbol id="sha-upright-alt" overflow="visible">
			<use xlink:href="#sha-italic" transform="skewX(11)"/>
		</symbol>
		<symbol id="i-upright-alt" overflow="visible">
			<use xlink:href="#i-italic" transform="skewX(11)"/>
		</symbol>
	</g>
	<g id="oblique-letters">
		<symbol id="be-oblique" overflow="visible">
			<path stroke="none" d="m 13.859375,-1.984375 c -1.742187,1.625 -3.867187,2.4375 -6.375,2.4375 -2.5,0 -4.289063,-0.789063 -5.359375,-2.375 C 1.382812,-3.003906 1.015625,-4.40625 1.015625,-6.125 1.015625,-6.925781 1.09375,-7.796875 1.25,-8.734375 L 1.84375,-12.3125 c 0.1875,-1.238281 0.320312,-2.070312 0.40625,-2.5 0.332031,-1.664062 0.914062,-3.113281 1.75,-4.34375 1.320312,-1.925781 2.882812,-3.304688 4.6875,-4.140625 1.8125,-0.832031 4.09375,-1.257813 6.84375,-1.28125 1.269531,-0.0078 2.203125,-0.101563 2.796875,-0.28125 l 0.359375,2.28125 c -0.554688,0.210937 -1.0625,0.320313 -1.53125,0.328125 l -3.953125,0.265625 c -1.335937,0.09375 -2.445313,0.371094 -3.328125,0.828125 -2.304688,1.21875 -3.710938,2.625 -4.21875,4.21875 l -0.28125,0.875 c 1.59375,-1.238281 3.5625,-1.859375 5.90625,-1.859375 2.351562,0 4.082031,0.8125 5.1875,2.4375 0.75,1.085937 1.125,2.449219 1.125,4.09375 0,0.8125 -0.09375,1.699219 -0.28125,2.65625 -0.5625,2.867187 -1.714844,5.117187 -3.453125,6.75 z 
				M 13.875,-13.65625 c -0.65625,-1.21875 -1.757812,-1.828125 -3.296875,-1.828125 -1.53125,0 -2.867187,0.605469 -4,1.8125 -1.125,1.199219 -1.890625,2.84375 -2.296875,4.9375 -0.15625,0.804687 -0.234375,1.640625 -0.234375,2.515625 0,0.875 0.203125,1.6875 0.609375,2.4375 0.65625,1.199219 1.753906,1.796875 3.296875,1.796875 1.539063,0 2.875,-0.601563 4,-1.8125 1.132813,-1.207031 1.90625,-2.851563 2.3125,-4.9375 C 14.421875,-9.523438 14.5,-10.351562 14.5,-11.21875 c 0,-0.875 -0.210938,-1.6875 -0.625,-2.4375 z"/>
		</symbol>
		<symbol id="ge-oblique" overflow="visible">
			<path stroke="none" d="m 1.203125,0 3.40625,-17.5 h 12.34375 L 16.5,-15.203125 H 7.046875 L 4.09375,0 z"/>
		</symbol>
		<symbol id="de-oblique" overflow="visible">
			<path stroke="none" d="m 6.09375,-2.296875 h 8.34375 l 2.515625,-12.90625 H 10.90625 l -0.421875,2.1875 c -0.84375,4.292969 -2.101563,7.585937 -3.765625,9.875 z 
				m -4.171875,0 C 2.953125,-2.710938 3.765625,-3.363281 4.359375,-4.25 5.804688,-6.445312 6.957031,-9.757812 7.8125,-14.1875 L 8.453125,-17.5 H 20.28125 L 17.328125,-2.296875 H 19.625 l -1.296875,6.71875 H 16.03125 L 16.890625,0 H 2.703125 L 1.84375,4.421875 h -2.296875 l 1.296875,-6.71875 z"/>
		</symbol>
		<symbol id="gje-oblique" overflow="visible">
			<path stroke="none" d="m 15.59375,-25.59375 h 3.109375 l -6.234375,5.875 H 10.0625 Z 
				M 1.203125,0 4.609375,-17.5 h 12.34375 L 16.5,-15.203125 H 7.046875 L 4.09375,0 z"/>
		</symbol>
		<symbol id="pe-oblique" overflow="visible">
			<path stroke="none" d="M 19.71875,-17.5 16.3125,0 H 13.421875 L 16.375,-15.203125 H 7.046875 L 4.09375,0 H 1.203125 l 3.40625,-17.5 z"/>
		</symbol>
		<symbol id="te-oblique" overflow="visible">
			<path stroke="none" d="M 2.640625,-17.5 H 19.40625 l -0.453125,2.296875 h -6.96875 L 9.03125,0 H 6.203125 L 9.15625,-15.203125 H 2.1875 z"/>
		</symbol>
		<symbol id="sha-oblique" overflow="visible">
			<path stroke="none" d="m 14.828125,-2.296875 h 7.40625 L 25.1875,-17.5 h 2.890625 L 24.671875,0 H 1.203125 l 3.40625,-17.5 H 7.5 L 4.546875,-2.296875 H 11.9375 L 14.890625,-17.5 h 2.890625 z"/>
		</symbol>
		<symbol id="i-oblique" overflow="visible"><!-- TO DO: improve, currently ugly random approximate coordinates -->
			<path stroke="none" d="
			M 19.71875,-17.5 
			L 16.3125,0 
			H 13.421875 
			L 16.375,-14.203125 
			L  4.09375,0 
			H  1.203125 
			L  4.609375,-17.5 
			H  7.846875
			L  4.609375,-3.4 
			L  16.3,-17.5
			z"/>
		</symbol>
	</g>
	<g id="italic-letters">
		<symbol id="be-italic" overflow="visible"><desc>like digit six: 6</desc>
			<path stroke="none" d="m 1.5625,-6.1875 c 0,-0.664062 0.050781,-1.375 0.15625,-2.125 l 0.390625,-2.75 c 0.28125,-1.988281 0.675781,-3.664062 1.1875,-5.03125 0.519531,-1.375 0.894531,-2.238281 1.125,-2.59375 1.101563,-1.78125 2.707031,-3.132812 4.8125,-4.0625 0.644531,-0.28125 1.84375,-0.578125 3.59375,-0.890625 1.757813,-0.3125 2.742187,-0.476563 2.953125,-0.5 0.21875,-0.01953 0.585938,-0.125 1.109375,-0.3125 0.519531,-0.195313 0.882813,-0.429687 1.09375,-0.703125 h 1.65625 c -0.304687,0.71875 -0.9375,1.546875 -1.90625,2.484375 -0.96875,0.929687 -1.960937,1.484375 -2.96875,1.671875 -3.375,0.59375 -5.4375,1.03125 -6.1875,1.3125 -0.742187,0.273438 -1.640625,0.929688 -2.703125,1.96875 -0.824219,0.8125 -1.476562,2.417969 -1.953125,4.8125 0.800781,-1.144531 1.75,-2.117188 2.84375,-2.921875 1.101563,-0.820313 2.664063,-1.234375 4.6875,-1.234375 2.414063,0 4.203125,0.796875 5.359375,2.390625 0.800781,1.105469 1.203125,2.464844 1.203125,4.078125 0,0.710938 -0.07813,1.46875 -0.234375,2.28125 -0.523438,2.648438 -1.667969,4.773438 -3.4375,6.375 -1.773438,1.59375 -3.871094,2.390625 -6.296875,2.390625 -2.417969,0 -4.179687,-0.757813 -5.28125,-2.28125 C 1.960938,-2.941406 1.5625,-4.394531 1.5625,-6.1875 Z 
M 4.75,-5.421875 c 0,2.886719 1.195312,4.328125 3.59375,4.328125 3.113281,0 5.140625,-2.40625 6.078125,-7.21875 0.207031,-1.101562 0.3125,-2.078125 0.3125,-2.921875 0,-2.851563 -1.199219,-4.28125 -3.59375,-4.28125 -3.117187,0 -5.136719,2.402344 -6.0625,7.203125 C 4.859375,-7.226562 4.75,-6.265625 4.75,-5.421875 z"/>
		</symbol>
		<symbol id="be-italic-alt" overflow="visible"><desc>like Greek delta: δ</desc>
			<path stroke="none" d="m 0.6875,-6.015625 c 0,-0.71875 0.082031,-1.484375 0.25,-2.296875 0.664062,-3.457031 2.335938,-5.96875 5.015625,-7.53125 -0.398437,-0.05078 -0.789063,-0.300781 -1.171875,-0.75 -0.375,-0.457031 -0.5625,-0.867188 -0.5625,-1.234375 0,-0.375 0.019531,-0.675781 0.0625,-0.90625 0.539062,-2.789063 2.789062,-4.367187 6.75,-4.734375 0.90625,-0.08203 1.78125,-0.125 2.625,-0.125 l 2.5,0.125 c 0.257812,0 0.703125,-0.0625 1.328125,-0.1875 0.625,-0.132812 1.03125,-0.21875 1.21875,-0.25 L 18,-21.5625 l -1.40625,0.171875 c -0.636719,0.05469 -1.277344,0.07813 -1.921875,0.07813 l -2.875,-0.125 c -1.84375,0 -3.308594,0.476562 -4.390625,1.421875 -0.511719,0.449219 -0.765625,0.90625 -0.765625,1.375 0,0.460937 0.234375,0.84375 0.703125,1.15625 0.476562,0.304687 0.96875,0.5 1.46875,0.59375 0.59375,-0.113281 1.207031,-0.171875 1.84375,-0.171875 2.425781,0 4.21875,0.796875 5.375,2.390625 0.800781,1.105469 1.203125,2.460937 1.203125,4.0625 0,0.71875 -0.07813,1.484375 -0.234375,2.296875 -0.523438,2.648438 -1.671875,4.773438 -3.453125,6.375 C 11.773438,-0.34375 9.675781,0.453125 7.25,0.453125 4.832031,0.453125 3.046875,-0.34375 1.890625,-1.9375 1.085938,-3.050781 0.6875,-4.410156 0.6875,-6.015625 Z 
M 3.96875,-5.4375 c 0,2.898438 1.195312,4.34375 3.59375,4.34375 3.113281,0 5.140625,-2.40625 6.078125,-7.21875 0.207031,-1.101562 0.3125,-2.082031 0.3125,-2.9375 0,-2.84375 -1.199219,-4.265625 -3.59375,-4.265625 -3.117187,0 -5.136719,2.402344 -6.0625,7.203125 -0.21875,1.085938 -0.328125,2.042969 -0.328125,2.875 z"/>
		</symbol>
		<symbol id="ge-italic" overflow="visible"><desc>like mirrored Roman s: ƨ</desc>
			<path stroke="none" d="m 2.3125,-3.34375 c 0,-1.5 0.707031,-2.84375 2.125,-4.03125 0.882812,-0.738281 2.035156,-1.390625 3.453125,-1.953125 l 1.8125,-0.6875 c 2.007813,-0.75 3.015625,-1.84375 3.015625,-3.28125 0,-0.488281 -0.164062,-0.984375 -0.484375,-1.484375 -0.3125,-0.5 -0.960937,-0.75 -1.9375,-0.75 -2.511719,0 -4.855469,1.304688 -7.03125,3.90625 L 2.5,-12.578125 c 0.570312,-0.84375 1.269531,-1.585937 2.09375,-2.234375 0.820312,-0.65625 1.445312,-1.09375 1.875,-1.3125 1.21875,-0.632812 2.632812,-0.953125 4.25,-0.953125 1.644531,0 2.890625,0.386719 3.734375,1.15625 0.851563,0.773437 1.28125,1.640625 1.28125,2.609375 0,1.324219 -0.484375,2.511719 -1.453125,3.5625 -0.960938,1.042969 -2.242188,1.855469 -3.84375,2.4375 -1.605469,0.574219 -2.667969,1 -3.1875,1.28125 -1.292969,0.6875 -1.9375,1.609375 -1.9375,2.765625 0,0.480469 0.148438,0.917969 0.453125,1.3125 0.445313,0.59375 1.1875,0.890625 2.21875,0.890625 2.09375,0 4.097656,-1.015625 6.015625,-3.046875 l 0.703125,-0.75 L 15.5,-3.875 C 13.257812,-0.988281 10.539062,0.453125 7.34375,0.453125 5.75,0.453125 4.507812,0.0664062 3.625,-0.703125 2.75,-1.484375 2.3125,-2.363281 2.3125,-3.34375 z"/>
		</symbol>
		<symbol id="ge-italic-alt" overflow="visible"><desc>like mirrored Roman s with macron above: ƨ</desc>
			<use xlink:href="#ge-italic"/>
			<path stroke="none" d="m 7.1875,-21.84375 h 9.34375 l -0.4375,2.3125 H 6.75 Z"/>
		</symbol>
		<symbol id="ge-italic-var" overflow="visible"><desc>like dotless Roman i with macron instead of tittle: ƨ</desc>
			<path stroke="none" d="M 3.25,0 l 2.90625,-14.9375 h -2.75 l 0.3125,-1.671875 h 5.625 l -2.90625,14.953125 h 2.5625 l -0.3125,1.65625 z"/>
			<path stroke="none" d="M 3.1875,-21.84375 h 9.34375 l -0.4375,2.3125 H 2.75 Z"/>
		</symbol>
		<symbol id="de-italic" overflow="visible"><desc>like Roman eth without crossbar: ð</desc>
			<path stroke="none" d="m 4.640625,-5.4375 c 0,2.898438 1.191406,4.34375 3.578125,4.34375 1.519531,0 2.800781,-0.609375 3.84375,-1.828125 0.675781,-0.78125 1.421875,-2.175781 2.234375,-4.1875 C 15.117188,-9.117188 15.53125,-10.5 15.53125,-11.25 c 0,-0.757812 -0.289062,-1.601562 -0.859375,-2.53125 -0.210937,-0.34375 -0.695313,-0.71875 -1.453125,-1.125 -0.761719,-0.40625 -1.492188,-0.609375 -2.1875,-0.609375 -1.542969,0 -2.828125,0.609375 -3.859375,1.828125 -1.023437,1.210938 -1.761719,3 -2.21875,5.375 -0.210937,1.085938 -0.3125,2.042969 -0.3125,2.875 z 
m -3.28125,-0.578125 c 0,-0.71875 0.078125,-1.484375 0.234375,-2.296875 0.507812,-2.644531 1.648438,-4.765625 3.421875,-6.359375 1.78125,-1.59375 3.84375,-2.390625 6.1875,-2.390625 2.34375,0 4.09375,1.078125 5.25,3.234375 0.195313,-1.019531 0.296875,-1.960937 0.296875,-2.828125 0,-1.40625 -0.25,-2.601562 -0.75,-3.59375 -0.824219,-1.625 -2.28125,-2.4375 -4.375,-2.4375 -1.335938,0 -2.539062,0.429688 -3.609375,1.28125 L 7.0625,-22.640625 c 1.269531,-1.113281 2.753906,-1.671875 4.453125,-1.671875 2.882813,0 5.035156,1.199219 6.453125,3.59375 0.65625,1.117188 0.984375,2.648438 0.984375,4.59375 0,3.074219 -0.570313,6.214844 -1.703125,9.421875 C 16.539062,-4.710938 15.53125,-3.125 14.21875,-1.9375 12.445312,-0.34375 10.351562,0.453125 7.9375,0.453125 5.507812,0.453125 3.71875,-0.34375 2.5625,-1.9375 1.757812,-3.050781 1.359375,-4.410156 1.359375,-6.015625 z"/>
		</symbol>
		<symbol id="de-italic-alt" overflow="visible"><desc>like Roman gƨ</desc>
			<path stroke="none" d="m 19.109375,-16.609375 -3.171875,16.25 c -0.480469,2.476563 -1.492188,4.316406 -3.03125,5.515625 -1.679688,1.300781 -3.679688,1.953125 -6,1.953125 C 5.8125,7.109375 4.785156,7.007812 3.828125,6.8125 2.867188,6.613281 1.96875,6.316406 1.125,5.921875 L 1.8125,2.4375 h 1.5 c -0.03125,1.082031 0.253906,1.875 0.859375,2.375 0.601563,0.5 1.554687,0.75 2.859375,0.75 1.6875,0 3.015625,-0.480469 3.984375,-1.4375 0.96875,-0.9375 1.648437,-2.433594 2.046875,-4.484375 L 13.5,-2.59375 c -0.761719,1.042969 -1.625,1.8125 -2.59375,2.3125 C 9.9375,0.207031 8.84375,0.453125 7.625,0.453125 c -1.835938,0 -3.214844,-0.617187 -4.140625,-1.859375 -0.585937,-0.78125 -0.90625,-1.710938 -0.96875,-2.796875 -0.042969,-0.632813 0.00781,-1.328125 0.15625,-2.078125 0.71875,-3.675781 2.351563,-6.460938 4.90625,-8.359375 2.175781,-1.601563 4.535156,-2.410156 7.078125,-2.421875 2.332031,-0.0078 3.816406,0.140625 4.453125,0.453125 z 
m -3.1875,1.671875 c -0.01172,-0.351562 -0.578125,-0.53125 -1.703125,-0.53125 -2.03125,0 -3.8125,0.78125 -5.34375,2.34375 -1.53125,1.574219 -2.578125,3.789062 -3.140625,6.640625 -0.15625,0.84375 -0.214844,1.585937 -0.171875,2.21875 0.039062,0.648437 0.191406,1.1875 0.453125,1.625 0.507813,0.867187 1.429687,1.296875 2.765625,1.296875 1.457031,0 2.671875,-0.519531 3.640625,-1.5625 0.96875,-1.050781 1.644531,-2.578125 2.03125,-4.578125 l 0.3125,-1.640625 z"/>
		</symbol>
		<symbol id="gje-italic" overflow="visible">
			<use xlink:href="#ge-italic"/>
			<path stroke="none" d="m 2.3125,-3.34375 m 12.09375,-22.25 h 3.109375 l -6.46875,5.875 H 9.21875 z"/>
		</symbol>
		<symbol id="gje-italic-alt" overflow="visible">
			<use xlink:href="#ge-italic-alt"/>
			<path stroke="none" d="M 7.1875,-21.84375 m -4.875,18.5 m 12.09375,-25.25 h 3.109375 l -6.46875,5.875 H 9.21875 z"/>
		</symbol>
		<symbol id="gje-italic-var" overflow="visible">
			<use xlink:href="#ge-italic-var"/>
			<path stroke="none" d="M 3.1875,-21.84375 m -4.875,18.5 m 12.09375,-25.25 h 3.109375 l -6.46875,5.875 H 5.21875 z"/>
		</symbol>
		<symbol id="pe-italic" overflow="visible"><desc>like Roman n</desc>
			<path stroke="none" d="m 2.25,0 2.90625,-14.9375 h -2.75 l 0.3125,-1.671875 h 5.625 l -0.5625,2.953125 c 0.75,-1.125 1.601562,-1.972656 2.5625,-2.546875 0.957031,-0.570313 2,-0.859375 3.125,-0.859375 1.832031,0 3.082031,0.527344 3.75,1.578125 0.394531,0.636719 0.59375,1.484375 0.59375,2.546875 0,0.699219 -0.08984,1.492188 -0.265625,2.375 L 15.8125,-1.65625 H 18.375 L 18.0625,0 h -5.453125 l 1.875,-9.65625 c 0.207031,-1.070312 0.3125,-1.96875 0.3125,-2.6875 0,-0.632812 -0.08594,-1.132812 -0.25,-1.5 -0.355469,-0.75 -1.164063,-1.125 -2.421875,-1.125 -1.335938,0 -2.445312,0.492188 -3.328125,1.46875 -0.886719,0.96875 -1.511719,2.386719 -1.875,4.25 L 5.125,0 z"/>
		</symbol>
		<symbol id="pe-italic-alt" overflow="visible"><desc>like Roman u with macron above: ū</desc>
			<use xlink:href="#i-italic"/>
			<path stroke="none" d="M 5.625,-19.8125 6.0625,-22.125 h 13.390625 l -0.4375,2.3125 z"/>
		</symbol>
		<symbol id="pe-italic-var" overflow="visible"><desc>like Roman n with macron above: n</desc>
			<use xlink:href="#pe-italic"/>
			<path stroke="none" d="M 5.625,-19.8125 6.0625,-22.125 h 13.390625 l -0.4375,2.3125 z"/>
		</symbol>
		<symbol id="te-italic" overflow="visible"><desc>like Roman m</desc>
			<path stroke="none" d="m 17.515625,-13.375 c 0.789063,-1.21875 1.675781,-2.132812 2.65625,-2.75 0.976563,-0.625 2.039063,-0.9375 3.1875,-0.9375 1.738281,0 2.929687,0.542969 3.578125,1.625 0.382812,0.648438 0.578125,1.496094 0.578125,2.546875 0,0.6875 -0.08594,1.464844 -0.25,2.328125 L 25.53125,-1.65625 H 28.125 L 27.8125,0 h -5.46875 l 1.984375,-10.234375 c 0.15625,-0.8125 0.234375,-1.507813 0.234375,-2.09375 0,-0.644531 -0.09375,-1.15625 -0.28125,-1.53125 -0.355469,-0.71875 -1.109375,-1.078125 -2.265625,-1.078125 -1.28125,0 -2.355469,0.484375 -3.21875,1.453125 -0.855469,0.96875 -1.464844,2.382813 -1.828125,4.234375 L 15.171875,0 h -2.875 L 14.3125,-10.34375 c 0.144531,-0.78125 0.21875,-1.453125 0.21875,-2.015625 0,-0.644531 -0.09375,-1.148437 -0.28125,-1.515625 -0.367188,-0.707031 -1.125,-1.0625 -2.28125,-1.0625 -1.28125,0 -2.355469,0.484375 -3.21875,1.453125 -0.855469,0.96875 -1.464844,2.382813 -1.828125,4.234375 L 5.125,0 H 2.25 l 2.90625,-14.96875 h -2.75 l 0.3125,-1.640625 h 5.625 l -0.5625,2.953125 c 0.738281,-1.101562 1.578125,-1.945312 2.515625,-2.53125 0.9375,-0.582031 1.925781,-0.875 2.96875,-0.875 1.289063,0 2.304687,0.324219 3.046875,0.96875 0.738281,0.636719 1.140625,1.542969 1.203125,2.71875 z"/>
		</symbol>
		<symbol id="te-italic-alt" overflow="visible"><desc>like round Roman w (or turned m: ɯ) with macron above</desc>
			<use xlink:href="#sha-italic"/>
			<path stroke="none" d="M 2.1875,-14.953125 m 3.734375,-4.859375 0.4375,-2.3125 H 29.125 l -0.4375,2.3125 z"/>
		</symbol>
		<symbol id="te-italic-var" overflow="visible"><desc>like Roman m with macron above</desc>
			<use xlink:href="#te-italic"/>
			<path stroke="none" d="M 2.1875,-14.953125 m 3.734375,-4.859375 0.4375,-2.3125 H 29.125 l -0.4375,2.3125 z"/>
		</symbol>
		<symbol id="sha-italic" overflow="visible"><desc>like round Roman w or turned m: ɯ</desc>
			<path stroke="none" d="M 2.1875,-14.953125 L 2.5,-16.609375 H 7.96875 L 5.984375,-6.375 C 5.828125,-5.5625 5.75,-4.847656 5.75,-4.234375 5.75,-3.617188 5.84375,-3.125 6.03125,-2.75 c 0.363281,0.71875 1.15625,1.078125 2.375,1.078125 1.21875,0 2.253906,-0.484375 3.109375,-1.453125 0.863281,-0.96875 1.472656,-2.378906 1.828125,-4.234375 l 1.796875,-9.25 h 2.875 l -2,10.34375 c -0.15625,0.78125 -0.234375,1.476563 -0.234375,2.078125 0,0.605469 0.09766,1.09375 0.296875,1.46875 0.363281,0.699219 1.15625,1.046875 2.375,1.046875 1.21875,0 2.253906,-0.484375 3.109375,-1.453125 0.863281,-0.96875 1.472656,-2.378906 1.828125,-4.234375 l 1.796875,-9.25 h 2.875 l -2.90625,14.96875 h 2.75 L 27.59375,0 h -5.625 l 0.578125,-2.953125 c -1.542969,2.273437 -3.375,3.40625 -5.5,3.40625 C 15.753906,0.453125 14.738281,0.132812 14,-0.5 c -0.742188,-0.644531 -1.140625,-1.554688 -1.203125,-2.734375 -1.59375,2.460937 -3.542969,3.6875 -5.84375,3.6875 -2.773437,0 -4.15625,-1.390625 -4.15625,-4.171875 0,-0.6875 0.082031,-1.460938 0.25,-2.328125 l 1.734375,-8.90625 z"/>
		</symbol>
		<symbol id="sha-italic-alt" overflow="visible"><desc>like round Roman w (or turned m: ɯ) with macron below: ɯ&#x0331;</desc>
			<use xlink:href="#sha-italic"/>
			<path stroke="none" d="M 2.1875,5.046875 l 0.4375,-2.3125 h 24.953125 l -0.4375,2.3125 z"/>
		</symbol>
		<symbol id="i-italic" overflow="visible"><desc>like Roman u</desc>
			<path stroke="none" d="m 15.484375,-16.609375 h 2.875 l -2.90625,14.953125 h 2.71875 L 17.859375,0 h -5.59375 l 0.5625,-2.9375 c -0.75,1.105469 -1.605469,1.949219 -2.5625,2.53125 C 9.316406,0.164062 8.285156,0.453125 7.171875,0.453125 5.328125,0.453125 4.070312,-0.0703125 3.40625,-1.125 3,-1.75 2.796875,-2.597656 2.796875,-3.671875 c 0,-0.695313 0.085937,-1.488281 0.265625,-2.375 L 4.78125,-14.9375 H 2.1875 l 0.328125,-1.671875 H 8 L 6.125,-6.9375 c -0.210938,1.074219 -0.3125,1.964844 -0.3125,2.671875 0,0.636719 0.082031,1.132813 0.25,1.484375 0.34375,0.75 1.148438,1.125 2.421875,1.125 1.332031,0 2.441406,-0.488281 3.328125,-1.46875 0.894531,-0.976562 1.519531,-2.398438 1.875,-4.265625 z"/>
		</symbol>
		<symbol id="i-italic-alt" overflow="visible"><desc>like Roman u with macron below: u&#x0331;</desc>
			<use xlink:href="#i-italic"/>
			<path stroke="none" d="M 2.1875,5.046875 l 0.4375,-2.3125 h 13.390625 l -0.4375,2.3125 z"/>
			<!--path stroke="none" d="m 2.625,2.8125 L 4.0625,5.125 h 13.390625 l 0.4375,-2.3125 z"/-->
		</symbol>
	</g>
</g>
</defs>
<rect id="background" x="0" y="0" width="240" height="400" fill="#E5E5E5" fill-opacity="0.6"/>
<g id="header" font-size="15" xml:lang="en">
	<text x="15" y="25">upright</text>
	<text x="5" y="45" font-size="10">default</text>
	<text x="40" y="45" font-size="10">alternate</text>
	<text x="77" y="25">oblique</text>
	<text x="140" y="25">italic/cursive</text>
	<text x="124" y="45" font-size="10">default</text>
	<text x="157" y="45" font-size="10">alternate</text>
	<text x="198" y="45" font-size="10">disambig.</text>
</g>
<g id="body" transform="translate(0,60)">
<g id="columns">
<rect id="col-upright"     x="0"   y="0" width="80" height="340" fill="none" stroke="black" stroke-width="1"/>
<!--rect id="col-upright-dflt"     x="0"   y="0" width="40" height="340" fill="none" stroke="black" stroke-width="1"/>
<rect id="col-upright-alt"      x="40"  y="0" width="40" height="340" fill="none" stroke="black" stroke-width="1"/-->
<rect id="col-oblique"     x="80"  y="0" width="40" height="340" fill="none" stroke="black" stroke-width="1"/>
<rect id="col-italic"     x="120" y="0" width="120" height="340" fill="none" stroke="black" stroke-width="1"/>
<!--rect id="col-italic-dflt"     x="120" y="0" width="40" height="340" fill="none" stroke="black" stroke-width="1"/>
<rect id="col-italic-alt" x="160" y="0" width="40" height="340" fill="none" stroke="black" stroke-width="1"/>
<rect id="col-italic-var" x="200" y="0" width="40" height="340" fill="none" stroke="black" stroke-width="1"/-->
</g>
<g id="grid" transform="translate(5,40)">
	<g id="row-be"  transform="translate(0,0)">
		<use xlink:href="#be-upright"     x="0" y="0"/>
		<use xlink:href="#be-upright-alt" x="40" y="0"/>
		<use xlink:href="#be-oblique"     x="80" y="0"/>
		<use xlink:href="#be-italic"     x="120" y="0"/>
		<use xlink:href="#be-italic-alt" x="160" y="0"/>
	</g>
	<g id="row-de"  transform="translate(0,40)">
		<use xlink:href="#de-upright"     x="0" y="0"/>
		<use xlink:href="#de-upright-alt" x="40" y="0"/>
		<use xlink:href="#de-oblique"     x="80" y="0"/>
		<use xlink:href="#de-italic"     x="120" y="0"/>
		<use xlink:href="#de-italic-alt" x="160" y="0"/>
	</g>
	<g id="row-ge"  transform="translate(0,80)">
		<use xlink:href="#ge-upright"     x="0" y="0"/>
		<use xlink:href="#ge-upright-alt" x="40" y="0"/>
		<use xlink:href="#ge-oblique"     x="80" y="0"/>
		<use xlink:href="#ge-italic"     x="120" y="0"/>
		<use xlink:href="#ge-italic-var" x="160" y="0"/>
		<use xlink:href="#ge-italic-alt" x="200" y="0"/>
	</g>
	<g id="row-gje" transform="translate(0,120)">
		<use xlink:href="#gje-upright"     x="0" y="0"/>
		<use xlink:href="#gje-upright-alt" x="40" y="0"/>
		<use xlink:href="#gje-oblique"     x="80" y="0"/>
		<use xlink:href="#gje-italic"     x="120" y="0"/>
		<use xlink:href="#gje-italic-var" x="160" y="0"/>
		<use xlink:href="#gje-italic-alt" x="200" y="0"/>
	</g>
	<g id="row-i"   transform="translate(0,160)">
		<use xlink:href="#i-upright"     x="0" y="0"/>
		<use xlink:href="#i-upright-alt" x="40" y="0"/>
		<use xlink:href="#i-oblique"     x="80" y="0"/>
		<use xlink:href="#i-italic"     x="120" y="0"/>
		<use xlink:href="#i-italic-alt" x="200" y="0"/>
	</g>
	<g id="row-pe"  transform="translate(0,200)">
		<use xlink:href="#pe-upright"     x="0" y="0"/>
		<use xlink:href="#pe-upright-alt" x="40" y="0"/>
		<use xlink:href="#pe-oblique"     x="80" y="0"/>
		<use xlink:href="#pe-italic"     x="120" y="0"/>
		<use xlink:href="#pe-italic-alt" x="160" y="0"/>
		<use xlink:href="#pe-italic-var" x="200" y="0"/>
	</g>
	<g id="row-te"  transform="translate(0,240)">
		<use xlink:href="#te-upright"     x="0" y="0"/>
		<use xlink:href="#te-upright-alt" x="40" y="0"/>
		<use xlink:href="#te-oblique"     x="80" y="0"/>
		<use xlink:href="#te-italic"     x="120" y="0"/>
		<use xlink:href="#te-italic-alt" x="160" y="0"/>
		<use xlink:href="#te-italic-var" x="200" y="0"/>
	</g>
	<g id="row-sha" transform="translate(0,280)">
		<use xlink:href="#sha-upright"     x="0" y="0"/>
		<use xlink:href="#sha-upright-alt" x="40" y="0"/>
		<use xlink:href="#sha-oblique"     x="80" y="0"/>
		<use xlink:href="#sha-italic"     x="120" y="0"/>
		<use xlink:href="#sha-italic-alt" x="200" y="0"/>
	</g>
</g>
</g>
</svg>
